<svg xmlns="http://www.w3.org/2000/svg" viewBox="0 0 512 512">
  <defs>
    <linearGradient id="bg" x1="0" y1="0" x2="1" y2="1">
      <stop offset="0" stop-color="#052f7a"/>
      <stop offset="0.55" stop-color="#0b64db"/>
      <stop offset="1" stop-color="#4fc3ff"/>
    </linearGradient>
    <filter id="shadow" x="-20%" y="-20%" width="140%" height="140%">
      <feDropShadow dx="0" dy="14" stdDeviation="16" flood-color="#001f54" flood-opacity="0.28"/>
    </filter>
  </defs>
  <rect width="512" height="512" rx="112" fill="url(#bg)"/>
  <path d="M256 74 392 126v103c0 95-58 167-136 209-78-42-136-114-136-209V126Z" fill="#ffffff" opacity="0.18"/>
  <g filter="url(#shadow)">
    <circle cx="232" cy="260" r="126" fill="#fff"/>
    <path d="M232 148 279 182 261 236H203L185 182Z" fill="#102033"/>
    <path d="M112 244 171 223 216 256 199 313 140 314Z" fill="#102033"/>
    <path d="M352 244 324 314 265 313 248 256 293 223Z" fill="#102033"/>
    <path d="M187 371 203 313 232 291 261 313 277 371 232 394Z" fill="#102033"/>
    <path d="M171 223 185 182M279 182 293 223M216 256H248M199 313H265M203 236 216 256M261 236 248 256" stroke="#d9e2ef" stroke-width="10" stroke-linecap="round"/>
  </g>
  <g filter="url(#shadow)">
    <rect x="306" y="94" width="132" height="132" rx="30" fill="#fff"/>
    <rect x="306" y="94" width="132" height="46" rx="30" fill="#0b4eb3"/>
    <rect x="306" y="124" width="132" height="32" fill="#0b4eb3"/>
    <circle cx="340" cy="176" r="9" fill="#d8e2f2"/>
    <circle cx="372" cy="176" r="9" fill="#d8e2f2"/>
    <circle cx="404" cy="176" r="9" fill="#d8e2f2"/>
    <path d="M339 200 362 221 407 166" fill="none" stroke="#0f8f52" stroke-width="16" stroke-linecap="round" stroke-linejoin="round"/>
  </g>
</svg>
